<?xml version="1.0" encoding="utf-8"?>
<!-- Generator: Adobe Illustrator 19.1.0, SVG Export Plug-In . SVG Version: 6.00 Build 0)  -->
<!DOCTYPE svg PUBLIC "-//W3C//DTD SVG 1.1//EN" "http://www.w3.org/Graphics/SVG/1.1/DTD/svg11.dtd">
<svg version="1.1" id="Layer_1" xmlns="http://www.w3.org/2000/svg" xmlns:xlink="http://www.w3.org/1999/xlink" x="0px" y="0px"
	 viewBox="0 0 25 25" enable-background="new 0 0 25 25" xml:space="preserve">
<path fill="#FFFFFF" d="M19.71,5.236H5.29c-1.259,0-2.284,1.024-2.284,2.284v9.96c0,1.259,1.025,2.284,2.284,2.284h14.42
	c1.259,0,2.284-1.025,2.284-2.284V7.52C21.994,6.26,20.97,5.236,19.71,5.236z M15.691,12.47c2.05-1.77,4.223-4.366,5.154-5.52
	c0.088,0.174,0.148,0.362,0.148,0.57v9.96c0,0.144-0.038,0.278-0.082,0.407L15.691,12.47z M19.71,6.236
	c0.13,0,0.248,0.038,0.366,0.074c-2.284,2.829-6.124,6.954-7.576,6.954c-1.465,0-5.502-4.045-7.898-6.799
	c0.202-0.132,0.43-0.229,0.688-0.229H19.71z M4.075,17.821c-0.031-0.111-0.069-0.22-0.069-0.341V7.52
	c0-0.062,0.027-0.116,0.036-0.176c0.977,1.108,3.148,3.483,5.176,5.141L4.075,17.821z M5.29,18.764
	c-0.213,0-0.406-0.065-0.583-0.158l5.306-5.506c0.955,0.695,1.837,1.163,2.487,1.163c0.651,0,1.501-0.465,2.413-1.159l5.333,5.534
	c-0.164,0.077-0.343,0.126-0.536,0.126H5.29z"/>
</svg>
