<?xml version="1.0" encoding="utf-8"?>
<!-- Generator: Adobe Illustrator 19.1.0, SVG Export Plug-In . SVG Version: 6.00 Build 0)  -->
<!DOCTYPE svg PUBLIC "-//W3C//DTD SVG 1.1//EN" "http://www.w3.org/Graphics/SVG/1.1/DTD/svg11.dtd">
<svg version="1.1" id="Layer_1" xmlns="http://www.w3.org/2000/svg" xmlns:xlink="http://www.w3.org/1999/xlink" x="0px" y="0px"
	 viewBox="0 0 25 25" enable-background="new 0 0 25 25" xml:space="preserve">
<g>
	<path fill="#FFFFFF" d="M13.525,11.242v-0.035c-0.007,0.013-0.015,0.025-0.023,0.035H13.525z"/>
	<path fill="#FFFFFF" d="M7.83,20.675H4.162V9.647H7.83V20.675z M5.996,8.137H5.971c-1.228,0-2.023-0.847-2.023-1.906
		c0-1.081,0.818-1.906,2.073-1.906c1.255,0,2.028,0.825,2.05,1.906C8.071,7.29,7.276,8.137,5.996,8.137z M21.052,20.675h-3.667
		v-5.902c0-1.482-0.529-2.496-1.857-2.496c-1.012,0-1.617,0.685-1.881,1.345c-0.099,0.236-0.122,0.56-0.122,0.892v6.16H9.86
		c0,0,0.047-9.996,0-11.028h3.665v1.56c0.488-0.753,1.36-1.819,3.304-1.819c2.412,0,4.223,1.574,4.223,4.961V20.675z"/>
</g>
</svg>
