<?xml version="1.0" encoding="UTF-8" standalone="no"?><!DOCTYPE svg PUBLIC "-//W3C//DTD SVG 1.1//EN" "http://www.w3.org/Graphics/SVG/1.1/DTD/svg11.dtd"><svg width="100%" height="100%" viewBox="0 0 495 478" version="1.1" xmlns="http://www.w3.org/2000/svg" xmlns:xlink="http://www.w3.org/1999/xlink" xml:space="preserve" style="fill-rule:evenodd;clip-rule:evenodd;stroke-linejoin:round;stroke-miterlimit:2;"><path d="M231.458,472.549l0,-325.076l32.616,-0l0,76.213l114.824,-0c42.531,-0 78.434,-38.823 78.434,-76.213l0,-34.76c-0.08,-37.301 -36.225,-74.301 -74.461,-74.301l-44.641,-0c-34.39,-0 -74.194,35.264 -74.156,74.301l0,34.76l-32.616,-0l0,-34.76c0.099,-56.907 49.147,-105.834 106.772,-106.647c38.844,-0.549 44.641,-0 44.641,-0c56.456,0.188 106.293,51.476 106.293,106.647l0,34.76c0,37.07 -21.775,74.588 -54.978,92.758c33.183,16.108 54.978,59.435 54.978,93.287l0,32.971c0,60.605 -53.196,106.06 -110.266,106.06l-114.824,-0l0,-32.465l114.824,0c35.262,0 78.434,-31.499 78.434,-78.053l0,-28.513c0,-41.729 -39.928,-76.56 -74.461,-77.179l-118.797,-0l0,216.21l-32.616,-0Z" style="fill:#ddd;"/><path d="M264.164,472.549l0,-325.076l-32.616,-0l0,76.213l-114.824,-0c-42.53,-0 -78.434,-38.823 -78.434,-76.213l0,-34.76c0.08,-37.301 36.226,-74.301 74.461,-74.301l44.642,-0c34.39,-0 74.194,35.264 74.155,74.301l0,34.76l32.616,-0l0,-34.76c-0.099,-56.907 -49.146,-105.834 -106.771,-106.647c-38.845,-0.549 -44.642,-0 -44.642,-0c-56.456,0.188 -106.293,51.476 -106.293,106.647l0,34.76c0,37.07 21.776,74.588 54.979,92.758c-33.183,16.108 -54.979,59.435 -54.979,93.287l0,139.031l31.832,-0l0,-139.031c0,-41.729 39.929,-76.56 74.461,-77.179l118.797,-0l0,216.21l32.616,-0Z" style="fill:#f9c0b6;"/></svg>