<?xml version="1.0" encoding="utf-8"?>
<!-- Generator: Adobe Illustrator 19.1.0, SVG Export Plug-In . SVG Version: 6.00 Build 0)  -->
<!DOCTYPE svg PUBLIC "-//W3C//DTD SVG 1.1//EN" "http://www.w3.org/Graphics/SVG/1.1/DTD/svg11.dtd">
<svg version="1.1" id="Layer_1" xmlns="http://www.w3.org/2000/svg" xmlns:xlink="http://www.w3.org/1999/xlink" x="0px" y="0px"
	 viewBox="0 0 25 25" enable-background="new 0 0 25 25" xml:space="preserve">
<path fill="#0061A1" d="M19.304,9.013c0.007,0.149,0.008,0.301,0.008,0.453c0,4.637-3.528,9.984-9.984,9.984
	c-1.983,0-3.825-0.58-5.38-1.577c0.277,0.032,0.556,0.048,0.837,0.048c1.647,0,3.159-0.558,4.36-1.502
	c-1.535-0.028-2.831-1.042-3.277-2.437c0.214,0.042,0.434,0.063,0.658,0.063c0.322,0,0.631-0.043,0.925-0.122
	c-1.604-0.324-2.815-1.742-2.815-3.441c0-0.015,0-0.03,0-0.045c0.473,0.262,1.014,0.421,1.589,0.438
	c-0.94-0.626-1.558-1.704-1.558-2.92c0-0.643,0.172-1.246,0.474-1.766c1.731,2.125,4.316,3.523,7.231,3.668
	c-0.057-0.257-0.09-0.525-0.09-0.8c0-1.938,1.572-3.508,3.511-3.508c1.007,0,1.919,0.426,2.559,1.106
	c0.8-0.157,1.552-0.448,2.23-0.85c-0.264,0.819-0.819,1.507-1.543,1.941c0.71-0.084,1.386-0.272,2.014-0.551
	C20.583,7.899,19.989,8.517,19.304,9.013z"/>
</svg>
