<svg viewBox="0 0 272 80" height="56" width="160" xmlns="http://www.w3.org/2000/svg"><path fill-rule="evenodd" clip-rule="evenodd" d="M37.735 67.631c0 1.224-.173 2.298-.52 3.224-.346.925-.865 1.663-1.558 2.212a3.809 3.809 0 01-2.493.894 3.612 3.612 0 01-2.979-1.553c-.077.376-.13.643-.161.8-.031.157-.093.33-.185.517H27.83c.108-.282.185-.62.231-1.011.046-.392.07-.973.07-1.741V59.702c0-.659-.032-1.212-.093-1.659a5.478 5.478 0 00-.277-1.165l2.263-.47c.077.44.134.843.173 1.212.038.368.058.811.058 1.329v2.73c0 .25-.004.497-.012.74-.008.244-.027.405-.058.483l.07.047c.477-.486.954-.827 1.431-1.023a4.155 4.155 0 011.593-.295c1.4 0 2.494.53 3.279 1.589.785 1.058 1.177 2.529 1.177 4.411zm-2.4-.047c0-.392-.008-.725-.024-1a6.015 6.015 0 00-.08-.73 3.681 3.681 0 00-.15-.576 5.235 5.235 0 00-.232-.54c-.43-.816-1.116-1.224-2.055-1.224-.354 0-.67.05-.946.153-.277.102-.57.262-.878.482-.215.157-.358.278-.427.365-.07.086-.165.208-.288.364v5.977c.277.33.635.62 1.073.87.439.252.912.377 1.42.377.4 0 .778-.094 1.132-.282.354-.189.623-.447.808-.777.184-.33.338-.76.461-1.294.124-.533.185-1.255.185-2.165zm10.458 6.518l4.041-12.165h-2.355l-2.055 6.965c-.17.533-.32 1.05-.45 1.553-.131.502-.243.957-.335 1.365H44.5a46.9 46.9 0 00-.346-1.412l-.323-1.365-2.217-7.412-2.147.495 2.563 7.74c.23.707.435 1.361.612 1.965.177.604.342 1.26.496 1.965l.831-.118c-.169.597-.323 1.071-.461 1.424-.139.353-.3.647-.485.882-.293.361-.597.647-.912.86a3.601 3.601 0 01-1.097.482l.67 1.411c.4-.078.788-.208 1.166-.388.377-.18.704-.388.98-.624.401-.345.759-.823 1.075-1.435.315-.612.611-1.341.888-2.188zm21.681-6.47c0 .925-.096 1.772-.289 2.54-.192.77-.48 1.436-.865 2a4.164 4.164 0 01-1.42 1.318c-.562.314-1.213.47-1.952.47-1.108 0-2.108-.407-3.001-1.223.015.094.027.192.034.294.008.102.012.216.012.341v4.824l-2.078.494V64.831c0-.706-.023-1.27-.07-1.694a13.07 13.07 0 00-.184-1.2l2.055-.353c.046.173.08.373.104.6.023.228.035.593.035 1.094.446-.549.95-.96 1.512-1.235a3.974 3.974 0 011.766-.412c.585 0 1.143.122 1.674.365.531.243.993.616 1.385 1.118.393.502.705 1.13.936 1.882.23.753.346 1.631.346 2.635zm-2.286.258c0-1.396-.177-2.482-.53-3.259-.355-.776-.986-1.164-1.894-1.164-1.032 0-1.955.486-2.77 1.459v6c.353.392.746.705 1.177.94.43.236.862.354 1.293.354.939 0 1.627-.357 2.066-1.071.439-.714.658-1.8.658-3.259zm13.623 6.33c-.754-.298-1.27-.863-1.547-1.695a8.743 8.743 0 01-.358.4 3.386 3.386 0 01-.647.518c-.269.173-.588.322-.958.447-.37.126-.808.188-1.316.188-1.154 0-2.066-.294-2.736-.882-.67-.588-1.004-1.447-1.004-2.576 0-1.38.508-2.424 1.524-3.13s2.47-1.059 4.363-1.059h.578c.077 0 .154.008.23.024v-.777c0-.345-.019-.662-.057-.953a1.905 1.905 0 00-.242-.74 1.199 1.199 0 00-.543-.471c-.239-.11-.558-.165-.958-.165-.616 0-1.243.133-1.882.4a7.644 7.644 0 00-1.674.941l-.97-1.553a65.8 65.8 0 01.912-.506c.331-.18.697-.349 1.097-.505.4-.157.835-.287 1.304-.389a7.24 7.24 0 011.536-.153c.847 0 1.562.157 2.147.47.585.315.985.785 1.2 1.413.093.25.155.517.186.8.03.282.046.706.046 1.27 0 .22-.004.49-.012.812-.008.322-.019.674-.034 1.059-.016.384-.027.792-.035 1.223-.008.432-.012.86-.012 1.283 0 .408.008.757.023 1.047.016.29.054.545.116.764.062.22.154.412.277.577.123.165.3.318.531.459l-1.085 1.459zm-1.916-6.283l-.404-.035a3.671 3.671 0 00-.29-.012c-.8 0-1.446.075-1.939.224-.492.149-.854.357-1.085.623-.215.267-.37.522-.462.765-.092.243-.138.56-.138.953 0 .659.158 1.165.473 1.518.316.353.766.529 1.35.529.493 0 .955-.141 1.386-.424a3.161 3.161 0 001.04-1.129l.069-3.012zm11.613-4.094l.74-2.165a2.21 2.21 0 00-.717-.117c-1.185 0-2.232.682-3.14 2.047v-.212c0-.298-.038-.62-.115-.965a3.857 3.857 0 00-.277-.847l-2.055.541c.138.361.246.761.323 1.2.077.44.115 1.02.115 1.742v8.659h2.125v-7.6c0-.33.065-.64.196-.93.13-.29.304-.545.52-.765a2.358 2.358 0 011.685-.706c.123 0 .227.012.312.036.084.023.18.05.288.082zm4.734 4.447v.283c0 1.035.161 1.82.484 2.353.308.47.69.82 1.143 1.047a3.33 3.33 0 001.513.34c1.062 0 2.008-.376 2.84-1.129l.808 1.294c-1.124 1.004-2.455 1.506-3.995 1.506-.8 0-1.52-.145-2.159-.435a4.548 4.548 0 01-1.627-1.235c-.447-.534-.79-1.185-1.028-1.953-.238-.769-.358-1.64-.358-2.612 0-1.02.108-1.886.324-2.6a5.605 5.605 0 011.062-1.965c.892-1.082 2.055-1.623 3.486-1.623 1.278 0 2.325.423 3.14 1.27.247.267.458.553.635.86.177.305.323.658.439 1.058.115.4.2.859.254 1.377.054.517.081 1.113.081 1.788v.376h-7.043zm4.825-1.6c0-1.176-.238-2.063-.716-2.659a2.325 2.325 0 00-.692-.588 1.936 1.936 0 00-.97-.235c-.831 0-1.443.31-1.836.93-.392.619-.588 1.47-.588 2.552h4.802zm12.191 7.035h2.101v-8.917c0-.565-.092-1.059-.277-1.483a2.62 2.62 0 00-1.062-1.211 3.085 3.085 0 00-1.662-.46c-.354 0-.716.048-1.085.142-.37.094-.724.243-1.063.447a4.832 4.832 0 00-.681.47l-.819.683c0-.36-.031-.682-.093-.965a3.673 3.673 0 00-.3-.847l-2.009.565c.077.22.143.42.197.6a5.591 5.591 0 01.219 1.294c.015.259.023.56.023.906v8.776h2.101v-8.729c.416-.423.889-.78 1.42-1.07.531-.29 1.012-.436 1.443-.436.554 0 .947.157 1.178.47.138.189.234.405.288.648.054.243.081.631.081 1.164v7.953zm10.852-10.258l.577-1.53h-2.817c0-.298.004-.611.012-.94.008-.33.023-.652.046-.966.023-.313.046-.608.069-.882a14.3 14.3 0 01.081-.741l-2.193.517c-.062.455-.1.957-.116 1.506-.015.55-.023 1.051-.023 1.506h-1.385v1.53h1.385v7.6c0 .423.023.768.07 1.035a2.6 2.6 0 00.184.647c.077.165.166.298.266.4.1.102.211.208.335.318.184.172.461.313.831.423.369.11.746.165 1.131.165a4.56 4.56 0 002.101-.494l-.254-1.318a2.452 2.452 0 01-1.085.235c-.585 0-.981-.133-1.189-.4-.208-.266-.312-.768-.312-1.505v-7.106h2.286zm11.406 6.635c0-.8-.235-1.486-.704-2.059-.47-.572-1.236-.984-2.298-1.235l-1.5-.353c-.616-.141-1.043-.337-1.282-.588-.238-.251-.358-.589-.358-1.012 0-.533.181-.96.543-1.283.362-.321.85-.482 1.466-.482.462 0 .916.075 1.362.224.447.149.939.357 1.478.623l.716-1.53a7.12 7.12 0 00-1.651-.693 7.155 7.155 0 00-1.997-.27c-.631 0-1.201.09-1.709.27-.508.18-.947.431-1.316.753-.369.321-.654.71-.854 1.164-.2.455-.3.95-.3 1.483 0 1.804.938 2.894 2.816 3.27l1.409.283c.693.125 1.189.34 1.489.647.3.306.45.71.45 1.212 0 .58-.196 1.043-.588 1.388-.393.345-.912.517-1.559.517a5.546 5.546 0 01-1.928-.353 12.127 12.127 0 01-1.789-.823l-.762 1.553a9.217 9.217 0 002.147.93 7.853 7.853 0 002.17.317c.662 0 1.274-.094 1.836-.283a4.137 4.137 0 001.443-.811c.4-.353.712-.769.935-1.247a3.77 3.77 0 00.335-1.612zm14.061-11.508l.716-1.412a3.955 3.955 0 00-1.166-.482 5.758 5.758 0 00-1.351-.153c-.877 0-1.578.188-2.101.565-.308.22-.6.565-.877 1.035s-.416 1.106-.416 1.906v.941c0 .204.004.396.012.577.007.18.019.302.034.364h-1.131v1.53h1.108v10.259h2.147v-10.26h2.494l.554-1.529h-3.071V60.03c0-.596.135-1.058.404-1.388.27-.33.651-.494 1.143-.494.262 0 .512.043.751.13.238.086.488.192.75.317zm11.337 9.343c0 .941-.119 1.788-.358 2.541-.239.753-.577 1.393-1.016 1.918-.439.526-.97.933-1.593 1.224a4.838 4.838 0 01-2.067.435c-.769 0-1.466-.145-2.089-.435a4.333 4.333 0 01-1.582-1.247c-.431-.542-.762-1.197-.993-1.965-.23-.769-.346-1.632-.346-2.588 0-.957.116-1.816.346-2.577.231-.76.562-1.412.993-1.953a4.391 4.391 0 011.559-1.247c.608-.29 1.297-.435 2.066-.435.847 0 1.59.165 2.228.494a4.59 4.59 0 011.593 1.341c.424.565.739 1.231.947 2 .208.769.312 1.6.312 2.494zm-2.378.094c0-.91-.062-1.67-.185-2.282-.123-.612-.304-1.098-.542-1.459-.239-.36-.524-.62-.855-.776a2.582 2.582 0 00-1.12-.236c-.923 0-1.589.342-1.997 1.024-.408.682-.612 1.776-.612 3.282 0 .894.058 1.647.174 2.26.115.61.284 1.105.507 1.482.224.376.505.647.843.811.339.165.731.247 1.178.247.8 0 1.435-.34 1.905-1.023.469-.683.704-1.792.704-3.33zm11.083-4.188l.739-2.165a2.214 2.214 0 00-.716-.117c-1.185 0-2.232.682-3.14 2.047v-.212c0-.298-.039-.62-.116-.965a3.847 3.847 0 00-.277-.847l-2.055.541c.139.361.247.761.323 1.2.077.44.116 1.02.116 1.742v8.659h2.124v-7.6c0-.33.066-.64.196-.93.131-.29.304-.545.52-.765.215-.22.469-.392.762-.517.292-.126.6-.189.923-.189.124 0 .227.012.312.036.085.023.181.05.289.082zm18.378 3.788c0 .926-.096 1.773-.288 2.541-.193.77-.481 1.436-.866 2a4.165 4.165 0 01-1.42 1.318c-.562.314-1.212.47-1.951.47-1.108 0-2.109-.407-3.002-1.223.016.094.027.192.035.294.008.102.012.216.012.341v4.824l-2.078.494V64.831c0-.706-.024-1.27-.07-1.694a13.007 13.007 0 00-.184-1.2l2.054-.353c.047.173.081.373.104.6.023.228.035.593.035 1.094.446-.549.951-.96 1.512-1.235a3.977 3.977 0 011.767-.412c.585 0 1.143.122 1.674.365.531.243.992.616 1.385 1.118.392.502.704 1.13.935 1.882.231.753.346 1.631.346 2.635zm-2.285.26c0-1.397-.177-2.483-.531-3.26-.354-.776-.986-1.164-1.894-1.164-1.031 0-1.955.486-2.77 1.459v6a4.47 4.47 0 001.177.94c.431.236.862.354 1.293.354.939 0 1.628-.357 2.067-1.071.438-.714.658-1.8.658-3.259zm13.622 6.329c-.754-.298-1.27-.863-1.547-1.695a8.52 8.52 0 01-.358.4 3.375 3.375 0 01-.646.518 4.39 4.39 0 01-.958.447c-.37.126-.808.188-1.316.188-1.155 0-2.067-.294-2.736-.882-.67-.588-1.005-1.447-1.005-2.576 0-1.38.508-2.424 1.524-3.13s2.471-1.059 4.364-1.059h.577c.077 0 .154.008.231.024v-.777c0-.345-.019-.662-.058-.953a1.898 1.898 0 00-.242-.74 1.197 1.197 0 00-.543-.471c-.238-.11-.558-.165-.958-.165-.616 0-1.243.133-1.882.4a7.683 7.683 0 00-1.674.941l-.969-1.553c.277-.157.581-.325.912-.506.331-.18.696-.349 1.096-.505a8.554 8.554 0 011.305-.389 7.234 7.234 0 011.535-.153c.847 0 1.563.157 2.148.47a2.45 2.45 0 011.2 1.413c.093.25.154.517.185.8.031.282.046.706.046 1.27 0 .22-.004.49-.011.812-.008.322-.02.674-.035 1.059a59.834 59.834 0 00-.046 2.506c0 .408.008.757.023 1.047.015.29.054.545.115.764.062.22.154.412.277.577.124.165.301.318.531.459l-1.085 1.459zm-1.916-6.283l-.404-.035a3.685 3.685 0 00-.289-.012c-.8 0-1.447.075-1.939.224-.493.149-.855.357-1.086.623a2.853 2.853 0 00-.461.765c-.093.243-.139.56-.139.953 0 .659.158 1.165.473 1.518.316.353.766.529 1.351.529a2.48 2.48 0 001.385-.424 3.155 3.155 0 001.039-1.129l.07-3.012zm11.614-4.094l.739-2.165a2.214 2.214 0 00-.716-.117c-1.185 0-2.232.682-3.14 2.047v-.212c0-.298-.039-.62-.116-.965a3.847 3.847 0 00-.277-.847l-2.055.541c.139.361.247.761.323 1.2.077.44.116 1.02.116 1.742v8.659h2.124v-7.6c0-.33.066-.64.196-.93.131-.29.304-.545.52-.765.215-.22.469-.392.762-.517.292-.126.6-.189.923-.189.124 0 .227.012.312.036.085.023.181.05.289.082zm4.733 4.447v.283c0 1.035.162 1.82.485 2.353.308.47.689.82 1.143 1.047.454.227.958.34 1.512.34 1.062 0 2.009-.376 2.84-1.129l.808 1.294c-1.124 1.004-2.455 1.506-3.994 1.506-.801 0-1.52-.145-2.159-.435a4.552 4.552 0 01-1.628-1.235c-.446-.534-.789-1.185-1.027-1.953-.239-.769-.358-1.64-.358-2.612 0-1.02.108-1.886.323-2.6a5.621 5.621 0 011.062-1.965c.893-1.082 2.055-1.623 3.487-1.623 1.277 0 2.324.423 3.14 1.27.246.267.458.553.635.86.177.305.323.658.438 1.058.116.4.2.859.254 1.377.054.517.081 1.113.081 1.788v.376h-7.042zm4.825-1.6c0-1.176-.238-2.063-.715-2.659a2.33 2.33 0 00-.693-.588 1.935 1.935 0 00-.97-.235c-.831 0-1.443.31-1.835.93-.393.619-.589 1.47-.589 2.552h4.802zm12.192 7.035h2.101v-8.917c0-.565-.093-1.059-.277-1.483a2.632 2.632 0 00-1.062-1.211 3.089 3.089 0 00-1.663-.46c-.354 0-.716.048-1.085.142a3.943 3.943 0 00-1.062.447 4.832 4.832 0 00-.681.47l-.82.683c0-.36-.031-.682-.092-.965a3.77 3.77 0 00-.3-.847l-2.009.565c.077.22.142.42.196.6a5.584 5.584 0 01.219 1.294c.016.259.024.56.024.906v8.776h2.101v-8.729a6.01 6.01 0 011.42-1.07c.531-.29 1.012-.436 1.443-.436.554 0 .946.157 1.177.47.139.189.235.405.289.648.054.243.081.631.081 1.164v7.953zm10.851-10.258l.577-1.53h-2.816c0-.298.003-.611.011-.94.008-.33.023-.652.046-.966.023-.313.046-.608.07-.882.023-.275.05-.522.08-.741l-2.193.517c-.062.455-.1.957-.116 1.506-.015.55-.023 1.051-.023 1.506h-1.385v1.53h1.385v7.6c0 .423.023.768.07 1.035a2.6 2.6 0 00.184.647c.077.165.166.298.266.4.1.102.212.208.335.318.184.172.461.313.831.423.369.11.746.165 1.131.165a4.56 4.56 0 002.101-.494l-.254-1.318a2.452 2.452 0 01-1.085.235c-.585 0-.981-.133-1.189-.4-.208-.266-.312-.768-.312-1.505v-7.106h2.286zm11.406 6.635c0-.8-.234-1.486-.704-2.059-.469-.572-1.235-.984-2.297-1.235l-1.501-.353c-.616-.141-1.043-.337-1.281-.588-.239-.251-.358-.589-.358-1.012 0-.533.181-.96.542-1.283.362-.321.851-.482 1.466-.482.462 0 .916.075 1.363.224.446.149.939.357 1.477.623l.716-1.53a7.102 7.102 0 00-1.651-.693 7.15 7.15 0 00-1.997-.27c-.631 0-1.201.09-1.708.27-.508.18-.947.431-1.317.753-.369.321-.654.71-.854 1.164-.2.455-.3.95-.3 1.483 0 1.804.939 2.894 2.817 3.27l1.408.283c.693.125 1.189.34 1.49.647.3.306.45.71.45 1.212 0 .58-.196 1.043-.589 1.388-.393.345-.912.517-1.559.517a5.536 5.536 0 01-1.927-.353 12.14 12.14 0 01-1.79-.823l-.762 1.553a9.254 9.254 0 002.147.93 7.86 7.86 0 002.171.317c.662 0 1.274-.094 1.835-.283a4.15 4.15 0 001.444-.811c.4-.353.711-.769.935-1.247a3.77 3.77 0 00.334-1.612z" fill="#0061A1"></path><mask id="a" maskUnits="userSpaceOnUse" x="27" y="56" width="224" height="23"><path fill-rule="evenodd" clip-rule="evenodd" d="M37.735 67.631c0 1.224-.173 2.298-.52 3.224-.346.925-.865 1.663-1.558 2.212a3.809 3.809 0 01-2.493.894 3.612 3.612 0 01-2.979-1.553c-.077.376-.13.643-.161.8-.031.157-.093.33-.185.517H27.83c.108-.282.185-.62.231-1.011.046-.392.07-.973.07-1.741V59.702c0-.659-.032-1.212-.093-1.659a5.478 5.478 0 00-.277-1.165l2.263-.47c.077.44.134.843.173 1.212.038.368.058.811.058 1.329v2.73c0 .25-.004.497-.012.74-.008.244-.027.405-.058.483l.07.047c.477-.486.954-.827 1.431-1.023a4.155 4.155 0 011.593-.295c1.4 0 2.494.53 3.279 1.589.785 1.058 1.177 2.529 1.177 4.411zm-2.4-.047c0-.392-.008-.725-.024-1a6.015 6.015 0 00-.08-.73 3.681 3.681 0 00-.15-.576 5.235 5.235 0 00-.232-.54c-.43-.816-1.116-1.224-2.055-1.224-.354 0-.67.05-.946.153-.277.102-.57.262-.878.482-.215.157-.358.278-.427.365-.07.086-.165.208-.288.364v5.977c.277.33.635.62 1.073.87.439.252.912.377 1.42.377.4 0 .778-.094 1.132-.282.354-.189.623-.447.808-.777.184-.33.338-.76.461-1.294.124-.533.185-1.255.185-2.165zm10.458 6.518l4.041-12.165h-2.355l-2.055 6.965c-.17.533-.32 1.05-.45 1.553-.131.502-.243.957-.335 1.365H44.5a46.9 46.9 0 00-.346-1.412l-.323-1.365-2.217-7.412-2.147.495 2.563 7.74c.23.707.435 1.361.612 1.965.177.604.342 1.26.496 1.965l.831-.118c-.169.597-.323 1.071-.461 1.424-.139.353-.3.647-.485.882-.293.361-.597.647-.912.86a3.601 3.601 0 01-1.097.482l.67 1.411c.4-.078.788-.208 1.166-.388.377-.18.704-.388.98-.624.401-.345.759-.823 1.075-1.435.315-.612.611-1.341.888-2.188zm21.681-6.47c0 .925-.096 1.772-.289 2.54-.192.77-.48 1.436-.865 2a4.164 4.164 0 01-1.42 1.318c-.562.314-1.213.47-1.952.47-1.108 0-2.108-.407-3.001-1.223.015.094.027.192.034.294.008.102.012.216.012.341v4.824l-2.078.494V64.831c0-.706-.023-1.27-.07-1.694a13.07 13.07 0 00-.184-1.2l2.055-.353c.046.173.08.373.104.6.023.228.035.593.035 1.094.446-.549.95-.96 1.512-1.235a3.974 3.974 0 011.766-.412c.585 0 1.143.122 1.674.365.531.243.993.616 1.385 1.118.393.502.705 1.13.936 1.882.23.753.346 1.631.346 2.635zm-2.286.258c0-1.396-.177-2.482-.53-3.259-.355-.776-.986-1.164-1.894-1.164-1.032 0-1.955.486-2.77 1.459v6c.353.392.746.705 1.177.94.43.236.862.354 1.293.354.939 0 1.627-.357 2.066-1.071.439-.714.658-1.8.658-3.259zm13.623 6.33c-.754-.298-1.27-.863-1.547-1.695a8.743 8.743 0 01-.358.4 3.386 3.386 0 01-.647.518c-.269.173-.588.322-.958.447-.37.126-.808.188-1.316.188-1.154 0-2.066-.294-2.736-.882-.67-.588-1.004-1.447-1.004-2.576 0-1.38.508-2.424 1.524-3.13s2.47-1.059 4.363-1.059h.578c.077 0 .154.008.23.024v-.777c0-.345-.019-.662-.057-.953a1.905 1.905 0 00-.242-.74 1.199 1.199 0 00-.543-.471c-.239-.11-.558-.165-.958-.165-.616 0-1.243.133-1.882.4a7.644 7.644 0 00-1.674.941l-.97-1.553a65.8 65.8 0 01.912-.506c.331-.18.697-.349 1.097-.505.4-.157.835-.287 1.304-.389a7.24 7.24 0 011.536-.153c.847 0 1.562.157 2.147.47.585.315.985.785 1.2 1.413.093.25.155.517.186.8.03.282.046.706.046 1.27 0 .22-.004.49-.012.812-.008.322-.019.674-.034 1.059-.016.384-.027.792-.035 1.223-.008.432-.012.86-.012 1.283 0 .408.008.757.023 1.047.016.29.054.545.116.764.062.22.154.412.277.577.123.165.3.318.531.459l-1.085 1.459zm-1.916-6.283l-.404-.035a3.671 3.671 0 00-.29-.012c-.8 0-1.446.075-1.939.224-.492.149-.854.357-1.085.623-.215.267-.37.522-.462.765-.092.243-.138.56-.138.953 0 .659.158 1.165.473 1.518.316.353.766.529 1.35.529.493 0 .955-.141 1.386-.424a3.161 3.161 0 001.04-1.129l.069-3.012zm11.613-4.094l.74-2.165a2.21 2.21 0 00-.717-.117c-1.185 0-2.232.682-3.14 2.047v-.212c0-.298-.038-.62-.115-.965a3.857 3.857 0 00-.277-.847l-2.055.541c.138.361.246.761.323 1.2.077.44.115 1.02.115 1.742v8.659h2.125v-7.6c0-.33.065-.64.196-.93.13-.29.304-.545.52-.765a2.358 2.358 0 011.685-.706c.123 0 .227.012.312.036.084.023.18.05.288.082zm4.734 4.447v.283c0 1.035.161 1.82.484 2.353.308.47.69.82 1.143 1.047a3.33 3.33 0 001.513.34c1.062 0 2.008-.376 2.84-1.129l.808 1.294c-1.124 1.004-2.455 1.506-3.995 1.506-.8 0-1.52-.145-2.159-.435a4.548 4.548 0 01-1.627-1.235c-.447-.534-.79-1.185-1.028-1.953-.238-.769-.358-1.64-.358-2.612 0-1.02.108-1.886.324-2.6a5.605 5.605 0 011.062-1.965c.892-1.082 2.055-1.623 3.486-1.623 1.278 0 2.325.423 3.14 1.27.247.267.458.553.635.86.177.305.323.658.439 1.058.115.4.2.859.254 1.377.054.517.081 1.113.081 1.788v.376h-7.043zm4.825-1.6c0-1.176-.238-2.063-.716-2.659a2.325 2.325 0 00-.692-.588 1.936 1.936 0 00-.97-.235c-.831 0-1.443.31-1.836.93-.392.619-.588 1.47-.588 2.552h4.802zm12.191 7.035h2.101v-8.917c0-.565-.092-1.059-.277-1.483a2.62 2.62 0 00-1.062-1.211 3.085 3.085 0 00-1.662-.46c-.354 0-.716.048-1.085.142-.37.094-.724.243-1.063.447a4.832 4.832 0 00-.681.47l-.819.683c0-.36-.031-.682-.093-.965a3.673 3.673 0 00-.3-.847l-2.009.565c.077.22.143.42.197.6a5.591 5.591 0 01.219 1.294c.015.259.023.56.023.906v8.776h2.101v-8.729c.416-.423.889-.78 1.42-1.07.531-.29 1.012-.436 1.443-.436.554 0 .947.157 1.178.47.138.189.234.405.288.648.054.243.081.631.081 1.164v7.953zm10.852-10.258l.577-1.53h-2.817c0-.298.004-.611.012-.94.008-.33.023-.652.046-.966.023-.313.046-.608.069-.882a14.3 14.3 0 01.081-.741l-2.193.517c-.062.455-.1.957-.116 1.506-.015.55-.023 1.051-.023 1.506h-1.385v1.53h1.385v7.6c0 .423.023.768.07 1.035a2.6 2.6 0 00.184.647c.077.165.166.298.266.4.1.102.211.208.335.318.184.172.461.313.831.423.369.11.746.165 1.131.165a4.56 4.56 0 002.101-.494l-.254-1.318a2.452 2.452 0 01-1.085.235c-.585 0-.981-.133-1.189-.4-.208-.266-.312-.768-.312-1.505v-7.106h2.286zm11.406 6.635c0-.8-.235-1.486-.704-2.059-.47-.572-1.236-.984-2.298-1.235l-1.5-.353c-.616-.141-1.043-.337-1.282-.588-.238-.251-.358-.589-.358-1.012 0-.533.181-.96.543-1.283.362-.321.85-.482 1.466-.482.462 0 .916.075 1.362.224.447.149.939.357 1.478.623l.716-1.53a7.12 7.12 0 00-1.651-.693 7.155 7.155 0 00-1.997-.27c-.631 0-1.201.09-1.709.27-.508.18-.947.431-1.316.753-.369.321-.654.71-.854 1.164-.2.455-.3.95-.3 1.483 0 1.804.938 2.894 2.816 3.27l1.409.283c.693.125 1.189.34 1.489.647.3.306.45.71.45 1.212 0 .58-.196 1.043-.588 1.388-.393.345-.912.517-1.559.517a5.546 5.546 0 01-1.928-.353 12.127 12.127 0 01-1.789-.823l-.762 1.553a9.217 9.217 0 002.147.93 7.853 7.853 0 002.17.317c.662 0 1.274-.094 1.836-.283a4.137 4.137 0 001.443-.811c.4-.353.712-.769.935-1.247a3.77 3.77 0 00.335-1.612zm14.061-11.508l.716-1.412a3.955 3.955 0 00-1.166-.482 5.758 5.758 0 00-1.351-.153c-.877 0-1.578.188-2.101.565-.308.22-.6.565-.877 1.035s-.416 1.106-.416 1.906v.941c0 .204.004.396.012.577.007.18.019.302.034.364h-1.131v1.53h1.108v10.259h2.147v-10.26h2.494l.554-1.529h-3.071V60.03c0-.596.135-1.058.404-1.388.27-.33.651-.494 1.143-.494.262 0 .512.043.751.13.238.086.488.192.75.317zm11.337 9.343c0 .941-.119 1.788-.358 2.541-.239.753-.577 1.393-1.016 1.918-.439.526-.97.933-1.593 1.224a4.838 4.838 0 01-2.067.435c-.769 0-1.466-.145-2.089-.435a4.333 4.333 0 01-1.582-1.247c-.431-.542-.762-1.197-.993-1.965-.23-.769-.346-1.632-.346-2.588 0-.957.116-1.816.346-2.577.231-.76.562-1.412.993-1.953a4.391 4.391 0 011.559-1.247c.608-.29 1.297-.435 2.066-.435.847 0 1.59.165 2.228.494a4.59 4.59 0 011.593 1.341c.424.565.739 1.231.947 2 .208.769.312 1.6.312 2.494zm-2.378.094c0-.91-.062-1.67-.185-2.282-.123-.612-.304-1.098-.542-1.459-.239-.36-.524-.62-.855-.776a2.582 2.582 0 00-1.12-.236c-.923 0-1.589.342-1.997 1.024-.408.682-.612 1.776-.612 3.282 0 .894.058 1.647.174 2.26.115.61.284 1.105.507 1.482.224.376.505.647.843.811.339.165.731.247 1.178.247.8 0 1.435-.34 1.905-1.023.469-.683.704-1.792.704-3.33zm11.083-4.188l.739-2.165a2.214 2.214 0 00-.716-.117c-1.185 0-2.232.682-3.14 2.047v-.212c0-.298-.039-.62-.116-.965a3.847 3.847 0 00-.277-.847l-2.055.541c.139.361.247.761.323 1.2.077.44.116 1.02.116 1.742v8.659h2.124v-7.6c0-.33.066-.64.196-.93.131-.29.304-.545.52-.765.215-.22.469-.392.762-.517.292-.126.6-.189.923-.189.124 0 .227.012.312.036.085.023.181.05.289.082zm18.378 3.788c0 .926-.096 1.773-.288 2.541-.193.77-.481 1.436-.866 2a4.165 4.165 0 01-1.42 1.318c-.562.314-1.212.47-1.951.47-1.108 0-2.109-.407-3.002-1.223.016.094.027.192.035.294.008.102.012.216.012.341v4.824l-2.078.494V64.831c0-.706-.024-1.27-.07-1.694a13.007 13.007 0 00-.184-1.2l2.054-.353c.047.173.081.373.104.6.023.228.035.593.035 1.094.446-.549.951-.96 1.512-1.235a3.977 3.977 0 011.767-.412c.585 0 1.143.122 1.674.365.531.243.992.616 1.385 1.118.392.502.704 1.13.935 1.882.231.753.346 1.631.346 2.635zm-2.285.26c0-1.397-.177-2.483-.531-3.26-.354-.776-.986-1.164-1.894-1.164-1.031 0-1.955.486-2.77 1.459v6a4.47 4.47 0 001.177.94c.431.236.862.354 1.293.354.939 0 1.628-.357 2.067-1.071.438-.714.658-1.8.658-3.259zm13.622 6.329c-.754-.298-1.27-.863-1.547-1.695a8.52 8.52 0 01-.358.4 3.375 3.375 0 01-.646.518 4.39 4.39 0 01-.958.447c-.37.126-.808.188-1.316.188-1.155 0-2.067-.294-2.736-.882-.67-.588-1.005-1.447-1.005-2.576 0-1.38.508-2.424 1.524-3.13s2.471-1.059 4.364-1.059h.577c.077 0 .154.008.231.024v-.777c0-.345-.019-.662-.058-.953a1.898 1.898 0 00-.242-.74 1.197 1.197 0 00-.543-.471c-.238-.11-.558-.165-.958-.165-.616 0-1.243.133-1.882.4a7.683 7.683 0 00-1.674.941l-.969-1.553c.277-.157.581-.325.912-.506.331-.18.696-.349 1.096-.505a8.554 8.554 0 011.305-.389 7.234 7.234 0 011.535-.153c.847 0 1.563.157 2.148.47a2.45 2.45 0 011.2 1.413c.093.25.154.517.185.8.031.282.046.706.046 1.27 0 .22-.004.49-.011.812-.008.322-.02.674-.035 1.059a59.834 59.834 0 00-.046 2.506c0 .408.008.757.023 1.047.015.29.054.545.115.764.062.22.154.412.277.577.124.165.301.318.531.459l-1.085 1.459zm-1.916-6.283l-.404-.035a3.685 3.685 0 00-.289-.012c-.8 0-1.447.075-1.939.224-.493.149-.855.357-1.086.623a2.853 2.853 0 00-.461.765c-.093.243-.139.56-.139.953 0 .659.158 1.165.473 1.518.316.353.766.529 1.351.529a2.48 2.48 0 001.385-.424 3.155 3.155 0 001.039-1.129l.07-3.012zm11.614-4.094l.739-2.165a2.214 2.214 0 00-.716-.117c-1.185 0-2.232.682-3.14 2.047v-.212c0-.298-.039-.62-.116-.965a3.847 3.847 0 00-.277-.847l-2.055.541c.139.361.247.761.323 1.2.077.44.116 1.02.116 1.742v8.659h2.124v-7.6c0-.33.066-.64.196-.93.131-.29.304-.545.52-.765.215-.22.469-.392.762-.517.292-.126.6-.189.923-.189.124 0 .227.012.312.036.085.023.181.05.289.082zm4.733 4.447v.283c0 1.035.162 1.82.485 2.353.308.47.689.82 1.143 1.047.454.227.958.34 1.512.34 1.062 0 2.009-.376 2.84-1.129l.808 1.294c-1.124 1.004-2.455 1.506-3.994 1.506-.801 0-1.52-.145-2.159-.435a4.552 4.552 0 01-1.628-1.235c-.446-.534-.789-1.185-1.027-1.953-.239-.769-.358-1.64-.358-2.612 0-1.02.108-1.886.323-2.6a5.621 5.621 0 011.062-1.965c.893-1.082 2.055-1.623 3.487-1.623 1.277 0 2.324.423 3.14 1.27.246.267.458.553.635.86.177.305.323.658.438 1.058.116.4.2.859.254 1.377.054.517.081 1.113.081 1.788v.376h-7.042zm4.825-1.6c0-1.176-.238-2.063-.715-2.659a2.33 2.33 0 00-.693-.588 1.935 1.935 0 00-.97-.235c-.831 0-1.443.31-1.835.93-.393.619-.589 1.47-.589 2.552h4.802zm12.192 7.035h2.101v-8.917c0-.565-.093-1.059-.277-1.483a2.632 2.632 0 00-1.062-1.211 3.089 3.089 0 00-1.663-.46c-.354 0-.716.048-1.085.142a3.943 3.943 0 00-1.062.447 4.832 4.832 0 00-.681.47l-.82.683c0-.36-.031-.682-.092-.965a3.77 3.77 0 00-.3-.847l-2.009.565c.077.22.142.42.196.6a5.584 5.584 0 01.219 1.294c.016.259.024.56.024.906v8.776h2.101v-8.729a6.01 6.01 0 011.42-1.07c.531-.29 1.012-.436 1.443-.436.554 0 .946.157 1.177.47.139.189.235.405.289.648.054.243.081.631.081 1.164v7.953zm10.851-10.258l.577-1.53h-2.816c0-.298.003-.611.011-.94.008-.33.023-.652.046-.966.023-.313.046-.608.07-.882.023-.275.05-.522.08-.741l-2.193.517c-.062.455-.1.957-.116 1.506-.015.55-.023 1.051-.023 1.506h-1.385v1.53h1.385v7.6c0 .423.023.768.07 1.035a2.6 2.6 0 00.184.647c.077.165.166.298.266.4.1.102.212.208.335.318.184.172.461.313.831.423.369.11.746.165 1.131.165a4.56 4.56 0 002.101-.494l-.254-1.318a2.452 2.452 0 01-1.085.235c-.585 0-.981-.133-1.189-.4-.208-.266-.312-.768-.312-1.505v-7.106h2.286zm11.406 6.635c0-.8-.234-1.486-.704-2.059-.469-.572-1.235-.984-2.297-1.235l-1.501-.353c-.616-.141-1.043-.337-1.281-.588-.239-.251-.358-.589-.358-1.012 0-.533.181-.96.542-1.283.362-.321.851-.482 1.466-.482.462 0 .916.075 1.363.224.446.149.939.357 1.477.623l.716-1.53a7.102 7.102 0 00-1.651-.693 7.15 7.15 0 00-1.997-.27c-.631 0-1.201.09-1.708.27-.508.18-.947.431-1.317.753-.369.321-.654.71-.854 1.164-.2.455-.3.95-.3 1.483 0 1.804.939 2.894 2.817 3.27l1.408.283c.693.125 1.189.34 1.49.647.3.306.45.71.45 1.212 0 .58-.196 1.043-.589 1.388-.393.345-.912.517-1.559.517a5.536 5.536 0 01-1.927-.353 12.14 12.14 0 01-1.79-.823l-.762 1.553a9.254 9.254 0 002.147.93 7.86 7.86 0 002.171.317c.662 0 1.274-.094 1.835-.283a4.15 4.15 0 001.444-.811c.4-.353.711-.769.935-1.247a3.77 3.77 0 00.334-1.612z" fill="#fff"></path></mask><path fill-rule="evenodd" clip-rule="evenodd" d="M36.709 46.036V22.707c0-1.058-.034-1.909-.102-2.553-.068-.644-.203-1.15-.406-1.519a1.597 1.597 0 00-.88-.759c-.385-.138-.87-.207-1.457-.207-.858 0-1.829.265-2.912.794-1.084.529-2.123 1.254-3.116 2.174v25.4h-8.601V23.052c0-2.209-.203-3.67-.61-4.383-.406-.713-1.241-1.07-2.506-1.07-.858 0-1.817.219-2.878.656-1.061.437-2.088 1.116-3.082 2.036v25.744H1.287v-24.64c0-2.577-.09-4.51-.271-5.798-.18-1.288-.52-2.37-1.016-3.244l8.195-2.277c.316.506.553 1 .711 1.484.158.483.328 1.185.508 2.105 2.438-2.393 5.26-3.59 8.466-3.59 2.845 0 5.193.967 7.044 2.9.451.46.903 1.035 1.355 1.725 1.58-1.656 3.137-2.841 4.673-3.554 1.535-.713 3.25-1.07 5.147-1.07 1.355 0 2.641.195 3.86.587 1.22.39 2.213.931 2.98 1.622.497.414.904.874 1.22 1.38.316.506.575 1.093.779 1.76.203.667.35 1.45.44 2.347.09.897.135 1.944.135 3.14v25.123H36.71zm41.664.966c-1.219-.874-2.122-2.024-2.709-3.45-1.129 1.104-2.472 1.943-4.03 2.519-1.557.575-3.262.862-5.113.862-2.438 0-4.605-.529-6.502-1.587-1.896-1.058-3.138-2.439-3.725-4.141-.27-.782-.463-1.703-.576-2.761-.113-1.058-.169-2.485-.169-4.28V10.699h8.94v21.81c0 1.61.068 2.853.203 3.727.136.875.316 1.565.542 2.07.226.507.644.91 1.253 1.209.61.299 1.253.448 1.93.448 1.13 0 2.258-.345 3.387-1.035s1.874-1.472 2.235-2.347V10.698h8.669v26.158c0 1.197.18 2.359.542 3.486.361 1.127.88 2.105 1.558 2.933l-6.435 3.727zm50.132-.966V22.707c0-1.058-.034-1.909-.102-2.553-.067-.644-.203-1.15-.406-1.519a1.597 1.597 0 00-.881-.759c-.383-.138-.869-.207-1.456-.207-.858 0-1.828.265-2.912.794-1.084.529-2.122 1.254-3.115 2.174v25.4h-8.602V23.052c0-2.209-.203-3.67-.609-4.383-.407-.713-1.242-1.07-2.506-1.07-.858 0-1.818.219-2.879.656-1.061.437-2.088 1.116-3.081 2.036v25.744h-8.873v-24.64c0-2.577-.09-4.51-.27-5.798-.181-1.288-.52-2.37-1.017-3.244l8.195-2.277c.317.506.554 1 .712 1.484.158.483.327 1.185.508 2.105 2.438-2.393 5.26-3.59 8.466-3.59 2.844 0 5.192.967 7.043 2.9.452.46.903 1.035 1.355 1.725 1.58-1.656 3.138-2.841 4.673-3.554 1.535-.713 3.251-1.07 5.147-1.07 1.355 0 2.642.195 3.861.587 1.219.39 2.212.931 2.98 1.622.497.414.903.874 1.219 1.38.316.506.576 1.093.779 1.76.203.667.35 1.45.44 2.347.09.897.136 1.944.136 3.14v25.123h-8.805zm44.983-11.181c0 1.84-.361 3.508-1.084 5.004a11.577 11.577 0 01-3.013 3.865c-1.287 1.081-2.845 1.921-4.674 2.52-1.828.597-3.849.897-6.061.897-4.245 0-8.918-1.358-14.02-4.073l3.251-6.764a41.34 41.34 0 002.404 1.346c.926.483 1.897.92 2.913 1.312 1.015.39 2.054.713 3.115.966 1.061.253 2.088.38 3.082.38 1.309 0 2.404-.38 3.284-1.14.881-.758 1.321-1.713 1.321-2.864 0-1.196-.429-2.128-1.287-2.795-.858-.667-2.212-1.185-4.063-1.553l-4.064-.76c-1.174-.23-2.371-.69-3.59-1.38-1.219-.69-2.144-1.426-2.776-2.208-.633-.782-1.118-1.749-1.457-2.899a12.19 12.19 0 01-.508-3.45c0-1.703.316-3.268.949-4.694a10.255 10.255 0 012.709-3.658c1.174-1.013 2.585-1.795 4.233-2.347 1.648-.552 3.488-.828 5.52-.828 2.799 0 5.169.356 7.111 1.07a53.622 53.622 0 015.283 2.243l-2.98 6.211c-1.716-.92-3.24-1.576-4.572-1.967a14.011 14.011 0 00-3.962-.586c-1.309 0-2.37.31-3.183.931-.813.622-1.219 1.461-1.219 2.52 0 .92.327 1.645.982 2.174.654.529 1.772 1 3.352 1.415l4.199 1.104c1.084.276 1.987.564 2.71.863.722.299 1.343.621 1.862.966.519.345.96.69 1.321 1.035.361.346.7.725 1.016 1.14 1.264 1.61 1.896 3.611 1.896 6.004zm26.088 11.181V23.053c0-2.025-.215-3.394-.644-4.107-.429-.713-1.23-1.07-2.404-1.07-.903 0-1.919.288-3.048.863-1.128.575-2.212 1.346-3.251 2.312v24.985h-9.075V20.43c0-1.519-.102-2.98-.305-4.383a21.862 21.862 0 00-.914-3.9l8.059-2.346c.858 1.518 1.287 2.99 1.287 4.417a53.032 53.032 0 011.93-1.38c.61-.414 1.299-.829 2.066-1.243a11.271 11.271 0 013.014-1.139 14.41 14.41 0 013.217-.38c1.942 0 3.68.473 5.215 1.416 1.535.943 2.574 2.174 3.116 3.692.451 1.243.677 2.922.677 5.039v25.813h-8.94zm27.103-14.77v.276c0 2.76.632 4.877 1.896 6.35 1.265 1.472 3.071 2.208 5.419 2.208 3.07 0 6.005-1.173 8.804-3.52l3.522 5.522c-3.928 3.267-8.285 4.9-13.071 4.9-2.484 0-4.741-.437-6.773-1.311-2.032-.874-3.759-2.105-5.181-3.693-1.423-1.587-2.518-3.508-3.285-5.763-.768-2.254-1.152-4.762-1.152-7.523 0-3.175.339-5.866 1.016-8.075a16.033 16.033 0 013.319-5.936c1.445-1.61 3.048-2.807 4.809-3.589 1.761-.782 3.792-1.173 6.095-1.173 2.032 0 3.928.322 5.689.966 1.761.644 3.206 1.565 4.335 2.76 1.58 1.657 2.743 3.716 3.488 6.178.745 2.462 1.117 5.556 1.117 9.283v2.14h-20.047zm10.634-7.178c0-1.335-.079-2.393-.237-3.175a6.325 6.325 0 00-.847-2.14c-.903-1.38-2.235-2.07-3.996-2.07-1.716 0-3.048.655-3.996 1.967-.948 1.311-1.422 3.21-1.422 5.694v.138h10.498v-.414zm34.079 21.189c-2.528 1.058-4.989 1.587-7.382 1.587-2.303 0-4.301-.471-5.994-1.414-1.693-.944-2.811-2.198-3.352-3.762a13.439 13.439 0 01-.339-1.035 4.933 4.933 0 01-.169-1.036 48.788 48.788 0 01-.102-3.382V17.048H250.6v-6.35h3.454c0-1.748.011-3.244.034-4.486a33.14 33.14 0 01.305-3.865L263.604 0a83.135 83.135 0 00-.407 5.211c-.09 1.864-.135 3.693-.135 5.487h6.976v6.35h-6.976v17.738c0 2.255.259 3.761.779 4.52.519.76 1.569 1.14 3.149 1.14a5.63 5.63 0 001.321-.173 56 56 0 001.93-.518l1.151 5.522z" fill="#0061A1"></path></svg>