<svg xmlns="http://www.w3.org/2000/svg" xml:space="preserve" fill-rule="evenodd" stroke-miterlimit="1.5" clip-rule="evenodd" viewBox="0 0 2084 2084">
  <path fill="none" stroke="#b3b3b3" stroke-width="133.3" d="M1053 2015V475c0-217 207-407 477-407 249 0 475 170 476 471 1 307-253 499-494 500-219 1-311-2-459-1h477c217-2 474 239 476 506 1 198-108 468-494 471h-459Z"/>
  <path fill="none" stroke="#f29b91" stroke-linejoin="round" stroke-width="133.3" d="M1051 2079c3-412 0-1263 0-1600 0-217-213-411-490-411C306 68 73 238 72 539a504 504 0 0 0 508 500h471l-490-1c-222-2-487 271-489 506v535"/>
</svg>